<svg version="1.1" id="Layer_1" xmlns="http://www.w3.org/2000/svg" xmlns:xlink="http://www.w3.org/1999/xlink" x="0px" y="0px"
                            viewBox="0 0 91 91" style="enable-background:new 0 0 91 91;" xml:space="preserve">
                       <style type="text/css">
                           .st0{fill:#ED325C;}
                       </style>
                       <g>
                           <path class="st0" d="M80.91,60.12c0,1.42-1.11,2.53-2.53,2.53h-9.82c-1.42,0-2.53-1.11-2.53-2.53v-2.06c0-1.43,1.11-2.54,2.53-2.54
                               h9.82c1.42,0,2.53,1.11,2.53,2.54V60.12z M24.86,60.12c0,1.42-1.1,2.53-2.53,2.53h-9.82c-1.42,0-2.53-1.11-2.53-2.53v-2.06
                               c0-1.43,1.11-2.54,2.53-2.54h9.82c1.43,0,2.53,1.11,2.53,2.54V60.12z M17.1,29.09c1.74-6.18,7.6-10.45,13.93-10.45h28.82
                               c6.49,0,12.19,4.28,13.93,10.45l3.17,10.61H13.94L17.1,29.09z M84.07,42.87h2.06c1.43,0,2.53-1.11,2.53-2.53v-2.06
                               c0-1.43-1.1-2.54-2.53-2.54h-4.11l-2.38-8.39c-2.53-8.71-10.61-14.73-19.63-14.73H31.2c-9.03,0-17.1,6.02-19.63,14.73l-2.38,8.39
                               H4.91c-1.42,0-2.53,1.11-2.53,2.54v2.06c0,1.42,1.11,2.53,2.53,2.53h2.06C2.7,45.88,0,50.78,0,56.48v18.21
                               c0,2.22,1.9,4.12,4.12,4.12H9.5v8.07c0,2.38,1.91,4.12,4.12,4.12h3.17c2.38,0,4.12-1.9,4.12-4.12v-8.07h49.08v8.07
                               c0,2.38,1.9,4.12,4.12,4.12h3.17c2.22,0,4.12-1.9,4.12-4.12v-8.07h5.38c2.22,0,4.12-1.9,4.12-4.12V56.48
                               C91.04,50.78,88.35,45.88,84.07,42.87"/>
                       </g>
                       </svg>