<svg xmlns="http://www.w3.org/2000/svg" viewBox="0 0 350 350"><defs><style>.cls-1{fill:#ed325c;}.cls-2,.cls-3,.cls-4,.cls-5{fill:none;stroke:#fff;stroke-miterlimit:10;}.cls-2,.cls-4{stroke-width:7px;}.cls-3,.cls-5{stroke-width:6px;}.cls-4,.cls-5{stroke-linecap:round;}</style></defs><title>Parking_3</title><g id="Layer_2" data-name="Layer 2"><g id="Parking"><g id="Parking_3"><circle class="cls-1" cx="175" cy="175" r="175"/><path class="cls-2" d="M268.52,149.84l12.4,13.26a5.87,5.87,0,0,1,1.56,4.67L275.83,229a4.43,4.43,0,0,1-4.4,3.95H76.82A4.42,4.42,0,0,1,72.43,229l-6.66-61.2a6,6,0,0,1,1.56-4.67l12.41-13.26Z"/><path class="cls-3" d="M81.46,233.41v16a4.42,4.42,0,0,0,4.42,4.42h19.67a4.42,4.42,0,0,0,4.42-4.42v-16"/><path class="cls-3" d="M238.28,233.41v16a4.42,4.42,0,0,0,4.43,4.42h19.66a4.43,4.43,0,0,0,4.43-4.42v-16"/><path class="cls-4" d="M270.43,181l-5.09-6.1a1.47,1.47,0,0,0-1.14-.53h-23a1.46,1.46,0,0,0-1.27.72l-9.31,15.67a1.47,1.47,0,0,0,1.27,2.23h33.54"/><path class="cls-4" d="M261.91,210.68H235.68a1.47,1.47,0,0,0-1.12.52l-7.86,9.25"/><path class="cls-4" d="M77.83,181l5.09-6.1a1.45,1.45,0,0,1,1.13-.53h23a1.48,1.48,0,0,1,1.27.72l9.3,15.67a1.47,1.47,0,0,1-1.26,2.23H82.81"/><path class="cls-4" d="M86.34,210.68h26.23a1.49,1.49,0,0,1,1.13.52l7.85,9.25"/><line class="cls-5" x1="150.04" y1="215.1" x2="198.22" y2="215.1"/><path class="cls-5" d="M205.76,200.62l10.37-8.8a1.47,1.47,0,0,0,.52-1.12v-9.4a1.47,1.47,0,0,0-1.47-1.47h-82.1a1.47,1.47,0,0,0-1.48,1.47v9.4a1.47,1.47,0,0,0,.52,1.12l10.38,8.8a1.48,1.48,0,0,0,.95.35H204.8A1.53,1.53,0,0,0,205.76,200.62Z"/><path class="cls-2" d="M78.44,149.84s22-44.74,30.55-47.69,37.85-6.7,65.38-6.7,56.29,3.75,64.9,6.7,30.55,47.69,30.55,47.69"/><path class="cls-3" d="M276.84,157.65h18.94a1.47,1.47,0,0,0,1.47-1.44l.43-15.43a1.46,1.46,0,0,0-1.47-1.51H284.32a1.49,1.49,0,0,0-.93.33l-12.55,10.24"/><path class="cls-3" d="M73.16,157.65H54.22a1.47,1.47,0,0,1-1.47-1.44l-.43-15.43a1.46,1.46,0,0,1,1.47-1.51H65.68a1.49,1.49,0,0,1,.93.33l12.55,10.24"/></g></g></g></svg>