<svg xmlns="http://www.w3.org/2000/svg" viewBox="0 0 358 358"><defs><style>.cls-1,.cls-2,.cls-3{fill:none;stroke:#ed325c;stroke-miterlimit:10;}.cls-1,.cls-2{stroke-linecap:round;}.cls-1,.cls-3{stroke-width:8px;}.cls-2{stroke-width:6px;}</style></defs><title>Desayuno_2</title><g id="Layer_2" data-name="Layer 2"><g id="Desayuno"><g id="Desayuno_2"><path class="cls-1" d="M210.61,271.22h-81a13.1,13.1,0,0,1-13.1-13.1V126.32a1.64,1.64,0,0,1,1.64-1.64h104a1.64,1.64,0,0,1,1.64,1.64v131.8A13.1,13.1,0,0,1,210.61,271.22Z"/><path class="cls-1" d="M223.71,216.29h24.72a13.1,13.1,0,0,0,13.1-13.1v-52.8a1.63,1.63,0,0,0-1.64-1.64H223.71"/><line class="cls-2" x1="156.81" y1="101.82" x2="156.81" y2="63.1"/><line class="cls-2" x1="185.19" y1="101.82" x2="185.19" y2="79.37"/><line class="cls-2" x1="185.19" y1="160.76" x2="185.19" y2="129.04"/><rect class="cls-2" x="171.82" y="162.05" width="27.63" height="38.68" rx="1.64" ry="1.64"/><circle class="cls-3" cx="179" cy="179" r="175"/></g></g></g></svg>