<svg xmlns="http://www.w3.org/2000/svg" viewBox="0 0 350 350"><defs><style>.cls-1{fill:#ed325c;}.cls-2,.cls-3{fill:none;stroke:#fff;stroke-linecap:round;stroke-miterlimit:10;}.cls-2{stroke-width:8px;}.cls-3{stroke-width:6px;}</style></defs><title>Desayuno_3</title><g id="Layer_2" data-name="Layer 2"><g id="Desayuno"><g id="Desayuno_3"><circle class="cls-1" cx="175" cy="175" r="175"/><path class="cls-2" d="M206.61,267.22h-81a13.1,13.1,0,0,1-13.1-13.1V122.32a1.64,1.64,0,0,1,1.64-1.64h104a1.64,1.64,0,0,1,1.64,1.64v131.8A13.1,13.1,0,0,1,206.61,267.22Z"/><path class="cls-2" d="M219.71,212.29h24.72a13.1,13.1,0,0,0,13.1-13.1v-52.8a1.63,1.63,0,0,0-1.64-1.64H219.71"/><line class="cls-3" x1="152.81" y1="97.82" x2="152.81" y2="59.1"/><line class="cls-3" x1="181.19" y1="97.82" x2="181.19" y2="75.37"/><line class="cls-3" x1="181.19" y1="156.76" x2="181.19" y2="125.04"/><rect class="cls-3" x="167.82" y="158.05" width="27.63" height="38.68" rx="1.64" ry="1.64"/></g></g></g></svg>