<svg version="1.1" id="Layer_1" xmlns="http://www.w3.org/2000/svg" xmlns:xlink="http://www.w3.org/1999/xlink" x="0px" y="0px"
                            width="40px" height="40px" viewBox="0 0 900 900" enable-background="new 0 0 900 900" xml:space="preserve">
                       <g id="reception">
                           <g>
                               <path fill="#ED325C" d="M749.724,614.066h-27.57v-48.909H177.848v48.909h-27.572c-5.767,0-10.479,4.719-10.479,10.48v38.089
                                   c0,5.768,4.714,10.484,10.479,10.484h599.448c5.769,0,10.48-4.719,10.48-10.484v-38.089
                                   C760.204,618.785,755.49,614.066,749.724,614.066z"/>
                               <path fill="#ED325C" d="M472.109,267.445v-41.519h30.946c5.768,0,10.482-4.719,10.482-10.482v-38.092
                                   c0-5.762-4.717-10.479-10.482-10.479H396.942c-5.766,0-10.481,4.717-10.481,10.479v38.092c0,5.763,4.718,10.482,10.481,10.482
                                   h30.946v41.519C287.925,278.7,177.846,395.838,177.846,538.699h544.305C722.152,395.838,612.073,278.7,472.109,267.445z"/>
                               <path fill="#FFFFFF" d="M291.5,482.823c22.012-80.625,82.556-145.339,160.656-173.062
                                   c-101.034,5.49-184.342,77.538-206.872,173.062H291.5z"/>
                           </g>
                       </g>
                       </svg>